<?xml version="1.0" encoding="utf-8"?>
<!-- Generator: Adobe Illustrator 24.0.1, SVG Export Plug-In . SVG Version: 6.00 Build 0)  -->
<svg version="1.1" id="Camada_1" xmlns="http://www.w3.org/2000/svg" xmlns:xlink="http://www.w3.org/1999/xlink" x="0px" y="0px"
	 viewBox="0 0 3086.9 2459.9" style="enable-background:new 0 0 3086.9 2459.9;" xml:space="preserve">
<style type="text/css">
	.st0{fill:#F4F1ED;stroke:#070707;stroke-width:6;stroke-linecap:round;stroke-linejoin:round;}
	.st1{fill:none;stroke:#070707;stroke-width:6;stroke-linecap:round;stroke-linejoin:round;}
	.st2{fill:#1C0E0C;}
	.st3{fill:#C5DCDD;stroke:#000000;stroke-width:6;stroke-linecap:round;stroke-linejoin:round;}
	.st4{fill:#FFBF00;stroke:#000000;stroke-width:6;stroke-linecap:round;stroke-linejoin:round;}
	.st5{fill:#F46F40;stroke:#000000;stroke-width:6;stroke-linecap:round;stroke-linejoin:round;}
	.st6{fill:#EFAF00;stroke:#000000;stroke-width:6;stroke-linecap:round;stroke-linejoin:round;}
	.st7{fill:#F4F1ED;}
	.st8{fill:#FFBF00;}
	.st9{fill:#EAE5DF;}
	.st10{fill:#FFFBF8;stroke:#070707;stroke-width:6;stroke-linecap:round;stroke-linejoin:round;}
	.st11{fill:none;stroke:#FFC3D5;stroke-width:6;stroke-miterlimit:10;}
	.st12{font-family:'ArialMT';}
	.st13{font-size:12px;}
	.st14{fill:none;stroke:#4B556A;stroke-width:6;stroke-miterlimit:10;}
	.st15{fill:#C48270;stroke:#0F0F0F;stroke-width:6;stroke-linecap:round;stroke-linejoin:round;}
	.st16{fill:#E38E32;}
	.st17{fill:#F9A09B;stroke:#000000;stroke-width:6;stroke-linecap:round;stroke-linejoin:round;}
	.st18{fill:#C48270;}
</style>
<g id="Layer_1">
	<g id="WEB_PAGES">
		<g id="WEB_PAGE">
			<path class="st0" d="M592,481.5h1946.7c20.5,0,37.1,16.6,37.1,37.1v1480.6c0,20.5-16.6,37.1-37.1,37.1H592
				c-20.5,0-37.1-16.6-37.1-37.1V518.6C554.8,498.1,571.5,481.5,592,481.5z"/>
			<line class="st1" x1="554.8" y1="598" x2="2575.8" y2="598"/>
			<path class="st2" d="M789.5,529.4h17.4c5.8,0,10.5,4.7,10.5,10.5v17.4c0,5.8-4.7,10.5-10.5,10.5h-17.4c-5.8,0-10.5-4.7-10.5-10.5
				v-17.4C779,534.1,783.7,529.4,789.5,529.4z"/>
			<path class="st2" d="M724,529.4h17.4c5.8,0,10.5,4.7,10.5,10.5v17.4c0,5.8-4.7,10.5-10.5,10.5H724c-5.8,0-10.5-4.7-10.5-10.5
				v-17.4C713.5,534.1,718.2,529.4,724,529.4z"/>
			<path class="st2" d="M658.4,529.4h17.4c5.8,0,10.5,4.7,10.5,10.5v17.4c0,5.8-4.7,10.5-10.5,10.5h-17.4c-5.8,0-10.5-4.7-10.5-10.5
				v-17.4C647.9,534.1,652.6,529.4,658.4,529.4z"/>
			<path class="st3" d="M781.6,522.4H799c5.8,0,10.5,4.7,10.5,10.5v17.4c0,5.8-4.7,10.5-10.5,10.5h-17.4c-5.8,0-10.5-4.7-10.5-10.5
				v-17.4C771.1,527.1,775.8,522.4,781.6,522.4z"/>
			<path class="st4" d="M716,522.4h17.4c5.8,0,10.5,4.7,10.5,10.5v17.4c0,5.8-4.7,10.5-10.5,10.5H716c-5.8,0-10.5-4.7-10.5-10.5
				v-17.4C705.5,527.1,710.2,522.4,716,522.4z"/>
			<path class="st5" d="M650.5,522.4h17.4c5.8,0,10.5,4.7,10.5,10.5v17.4c0,5.8-4.7,10.5-10.5,10.5h-17.4c-5.8,0-10.5-4.7-10.5-10.5
				v-17.4C640,527.1,644.7,522.4,650.5,522.4z"/>
		</g>
	</g>
	<path class="st1" d="M355.9,1894.2c15.6-15.5,40.8-15.5,56.4,0l0,0c15.6,15.5,40.8,15.5,56.5,0l4.1-4.1c15.6-15.5,40.8-15.5,56.4,0
		l6.2,6.1c15.6,15.5,40.8,15.5,56.4,0l5.1-5.1c15.6-15.5,40.8-15.5,56.5,0"/>
	<path class="st1" d="M597.1,1891.3c15.6-15.5,40.8-15.5,56.5,0l5.7,5.7c15.6,15.5,40.8,15.5,56.5,0l3.5-3.5
		c15.6-15.5,40.8-15.5,56.4,0l0,0c15.6,15.5,40.8,15.5,56.5,0l4.1-4.1c15.6-15.5,40.8-15.5,56.5,0l6.2,6.1
		c15.6,15.5,40.8,15.5,56.4,0l5.1-5.1c15.6-15.5,40.8-15.5,56.5,0"/>
	<path class="st1" d="M355.9,1925.2c15.6-15.5,40.8-15.5,56.4,0l0,0c15.6,15.5,40.8,15.5,56.5,0l4.2-4.2c15.6-15.5,40.8-15.5,56.4,0
		l6.2,6.1c15.6,15.5,40.8,15.5,56.4,0l5.1-5.1c15.6-15.5,40.8-15.5,56.5,0"/>
	<path class="st1" d="M597.1,1922.3c15.6-15.5,40.8-15.5,56.5,0l5.7,5.7c15.6,15.5,40.8,15.5,56.5,0l3.5-3.5
		c15.6-15.5,40.8-15.5,56.4,0l0,0c15.6,15.5,40.8,15.5,56.5,0l4.1-4.1c15.6-15.5,40.8-15.5,56.5,0l6.2,6.1
		c15.6,15.5,40.8,15.5,56.4,0l5.1-5.1c15.6-15.5,40.8-15.5,56.5,0"/>
	
		<ellipse transform="matrix(0.3827 -0.9239 0.9239 0.3827 550.8616 2372.6624)" class="st1" cx="2050.9" cy="774.1" rx="15.4" ry="15.4"/>
	<circle class="st6" cx="1989" cy="720.7" r="22"/>
	<g id="PACKAGE">
		<circle class="st2" cx="2263.6" cy="1115.3" r="150"/>
		<circle class="st0" cx="2263.6" cy="1100.2" r="150"/>
		<polygon class="st7" points="2291.6,1183.2 2205.7,1183.2 2220.5,1062.2 2306.4,1062.2 		"/>
		<polygon class="st8" points="2329.4,1183.2 2291.6,1183.2 2306.4,1062.2 2314.6,1062.2 		"/>
		<polygon class="st1" points="2323.2,1181.7 2286,1181.7 2301.5,1055.2 2307.7,1055.2 		"/>
		<polygon class="st1" points="2301.5,1055.2 2286,1181.7 2197.7,1181.7 2213.2,1055.2 		"/>
		<path class="st1" d="M2265.3,1017.2h6.1c7.8,0,14.2,6.3,14.2,14.2v23.9l0,0h-34.4l0,0v-23.9
			C2251.1,1023.6,2257.5,1017.2,2265.3,1017.2C2265.3,1017.2,2265.3,1017.2,2265.3,1017.2z"/>
		<path class="st1" d="M2255.2,1017.2h6.1c7.8,0,14.2,6.3,14.2,14.2v23.9l0,0h-34.4l0,0v-23.9
			C2241.1,1023.6,2247.4,1017.2,2255.2,1017.2L2255.2,1017.2z"/>
	</g>
	<g id="CHAIR">
		<path class="st1" d="M1610.2,1877.8c-11.5,0-20.9,9-20.9,20.2v168.7c0,33.9,28.4,61.3,63.4,61.3h106.9c20.8,0,37.7,16.3,37.7,36.5
			"/>
		<path class="st1" d="M1544.9,1877.8c11.5,0,20.8,9,20.8,20.2v168.7c0,33.9-28.4,61.3-63.4,61.3h-106.9
			c-20.8,0-37.7,16.3-37.7,36.5"/>
		<ellipse class="st0" cx="1577.6" cy="1384.3" rx="504" ry="476.8"/>
		<ellipse class="st9" cx="1577.6" cy="1353.4" rx="446.6" ry="422.5"/>
		<path class="st10" d="M1883.3,1611.1c18.7,2.8,26,25.8,12.4,38.9c-81,77.7-193.6,125.9-318,125.9c-124.3,0-236.7-48-317.6-125.5
			c-13.7-13.1-6.4-36.1,12.3-38.9c93.9-14.2,197.7-22,306.8-22C1687.2,1589.5,1790.1,1597.2,1883.3,1611.1z"/>
		<circle class="st1" cx="1358.4" cy="2203" r="38.6"/>
		<circle class="st1" cx="1579.5" cy="2203" r="38.6"/>
		<circle class="st1" cx="1797.9" cy="2203" r="38.6"/>
	</g>
	<g id="PLANT">
		<g id="PLANT-2">
			<path class="st6" d="M2410.4,1549.3c-53.5,81-154.4,125.3-199,100.3c-43.1-24.2-46.9-143.6,6.7-224.7s143-118.9,195.1-84.6
				S2463.9,1468.2,2410.4,1549.3z"/>
			<path class="st1" d="M2217.4,1922.6c0,0-53.9-437.4,195.4-580.3"/>
			<line class="st1" x1="2448.1" y1="1439.9" x2="2298.8" y2="1455.2"/>
			<line class="st1" x1="2446" y1="1455.7" x2="2289.3" y2="1471.7"/>
			<line class="st1" x1="2219.9" y1="1425.8" x2="2257.8" y2="1537.9"/>
			<path class="st6" d="M2608.3,1772.7c-16.6,42.7-89.1,54.4-162,26.1s-101.1-84.4-97.9-103.1c4-23.5,90.1-63.7,157.8-51.6
				C2583.2,1658,2624.9,1730,2608.3,1772.7z"/>
			<path class="st1" d="M2172.8,1922.6c0,0-6.5-192.1,196.4-231.6c111.1-21.6,197,34.2,236.4,81.6"/>
			<line class="st1" x1="2480" y1="1694.1" x2="2549.3" y2="1662.3"/>
			<line class="st1" x1="2497.3" y1="1699.6" x2="2561.9" y2="1669.4"/>
			<line class="st1" x1="2451.4" y1="1688.5" x2="2478.4" y2="1806.2"/>
			<path class="st6" d="M2132.1,1637.2c32.9,49.7,27.8,120.1,1,136.4c-16.2,9.9-84.5-8-117.4-57.7s-32.8-109.3-0.9-130.5
				S2099.2,1587.5,2132.1,1637.2z"/>
			<path class="st1" d="M2148.5,1922.6c0,0,18.5-248.5-132.8-334.6"/>
			<line class="st1" x1="1994.6" y1="1660.6" x2="2090.1" y2="1660.6"/>
			<line class="st1" x1="1999.4" y1="1677.1" x2="2099.5" y2="1677.1"/>
			<line class="st1" x1="2134.4" y1="1644" x2="2117.2" y2="1712.5"/>
		</g>
		<g id="VASE">
			<path class="st0" d="M2320.6,1965.1v172.8c0,23.4-18.9,42.4-42.4,42.4c0,0-0.1,0-0.1,0h-172.8c-23.4,0-42.4-18.9-42.4-42.4
				c0,0,0,0,0-0.1v-172.8c0-23.4,19-42.4,42.4-42.4h172.8C2301.6,1922.6,2320.6,1941.6,2320.6,1965.1z"/>
			<path class="st11" d="M2104.1,1922.6h175.5c22.7,0,41.1,18.4,41.1,41.1v175.5c0,22.7-18.4,41.1-41.1,41.1h-175.5
				c-22.7,0-41.1-18.4-41.1-41.1v-175.5C2063,1941,2081.4,1922.6,2104.1,1922.6z"/>
			<path class="st1" d="M2320.6,1965.1v172.8c0,23.4-18.9,42.4-42.4,42.4c0,0-0.1,0-0.1,0h-172.8c-23.4,0-42.4-18.9-42.4-42.4
				c0,0,0,0,0-0.1v-172.8c0-23.4,19-42.4,42.4-42.4h172.8C2301.6,1922.6,2320.6,1941.6,2320.6,1965.1z"/>
		</g>
	</g>
	<text transform="matrix(1 0 0 1 1703.95 1493.22)" class="st12 st13">faf9f7</text>
	<g id="BASKET">
		<circle class="st2" cx="899.8" cy="862.1" r="158.4"/>
		<circle class="st0" cx="899.8" cy="842.1" r="158.4"/>
		<polygon class="st8" points="857.3,889.1 964.8,889.1 986.4,819.4 835.8,819.4 		"/>
		<path class="st1" d="M781.8,787.6h22.7c7,0,13.1,4.5,15.2,11.2l27.1,87.6h109.5l5.4,21.9c1.5,6-2.2,12-8.2,13.5
			c-0.9,0.2-1.8,0.3-2.7,0.3h-99.5"/>
		<polygon class="st1" points="846.7,886.5 956,886.5 978.6,813.3 824.2,813.3 		"/>
		<line class="st1" x1="915.8" y1="886.5" x2="938.5" y2="813.3"/>
		<line class="st1" x1="891.4" y1="886.5" x2="868.8" y2="813.3"/>
		<line class="st1" x1="834.8" y1="847.5" x2="968.1" y2="847.5"/>
		<circle class="st1" cx="864.3" cy="941.7" r="11"/>
		<circle class="st1" cx="944.6" cy="941.7" r="11"/>
		<line class="st1" x1="901.2" y1="729.6" x2="901.2" y2="786.2"/>
		<polyline class="st1" points="873.6,761.8 900.9,789.1 926.8,763.2 		"/>
	</g>
</g>
<g id="Layer_3">
	<g id="LEGS">
		<path id="HIPS" class="st3" d="M1754.8,1306.3c0,0,106.5,176.4,58,260.8s-134.1,115.7-235.2,104.8
			c-256.2-27.6-571.7-224.8-563.7-288.4c10.7-85.9,482.5,12.6,482.5,12.6l42-88.9L1754.8,1306.3z"/>
		<g id="LEFT_LEG">
			<path id="LEG" class="st3" d="M1016.9,1373.4c-14.2,14.7-118.2,218.6,509.5,366.9l23.6-43.3
				C1550,1697,1129.4,1257.6,1016.9,1373.4z"/>
			<path id="SHADOW" class="st14" d="M1550.9,1697c0,0-210.6-220-373.6-307.7"/>
			<path id="FOOT" class="st15" d="M1526.4,1740.3c29,5.2,152.2,47.8,179.5,42.1s-16-86.6-33-90s-101,6.1-122.9,4.6
				S1526.4,1740.3,1526.4,1740.3z"/>
		</g>
		<g id="RIGHT_LEG">
			<path id="LEG-2" class="st3" d="M1675.6,1559c-109.3,230.5-420.7,493.4-420.7,493.4s-23.5-20.4-53.1-21.6
				c0,0,278.6-619.7,436-649.7C1765,1356.7,1693.9,1520.2,1675.6,1559z"/>
			<path id="FOOT-2" class="st15" d="M1201.7,2029.3c-27.8,44.3-70.7,137.4-97.7,169.7c-8.8,10.5,68.6,13.6,80.3,4.3
				c16.1-12.8,17.4-60.8,49.4-67c22.4-4.3,44.9-19.2,34.4-40.9c-14.7-30.4-12.6-44.8-12.6-44.8
				C1230.2,2022.3,1201.7,2029.3,1201.7,2029.3z"/>
		</g>
	</g>
	<g id="LEFT_HAND">
		<path id="HAND" class="st15" d="M1546.7,974.3c51.1,83.5-16.2,277-47.1,305.9c-57.3,53.6-307.3,46-307.3,46l-10.2-23
			c0,0,137.8-75.1,247.7-81.1c0,0,29.3-150.8,39.1-194C1481.1,973.7,1511.4,916.7,1546.7,974.3z"/>
		<path id="ARM" class="st16" d="M1210.3,1305.2c-5.5-13.8-52.7-5.2-71.4,3.6c-15.9,7.4-35.2,27.3-38.4,31.5s-10.2,25.5-10.2,25.5
			s6.8,7.2,15.9-5.3s32.9-26.9,38.8-23.7c13.2,7.1-18.8,9.8-22.3,14.9s-1.8,8.1-1.8,8.1s30.2-1.4,35-2s24.1-9.3,33.5-17.2
			S1213.7,1313.8,1210.3,1305.2z"/>
	</g>
	<path id="TORSO" class="st0" d="M1750,923.8c15.5,4.6,64,22.7,64,22.7s-4.1,117.3-17.9,145c-57.6,116.2-39.7,223.3-39.7,223.3
		s-136.5,22.7-220,0.8c0,0,10.9-88.4-6.9-99s-47.1-34.3-39-82.2s6.2-173.4,16-181.5s53-29.2,64.2-29.2S1750,923.8,1750,923.8z"/>
	<g id="LAPTOP">
		<path class="st17" d="M1323.9,1160.6h-305.7c-11.5,0-20.9,9.4-20.9,20.9c0,2.5,0.4,4.9,1.3,7.2l77,209.4h357.9l-79.7-216.6
			C1349.3,1169,1337.3,1160.6,1323.9,1160.6z"/>
		<path class="st17" d="M1317.9,1171.2h-298c-11.3,0-20.4,9.1-20.4,20.4c0,2.4,0.4,4.8,1.3,7l75.1,204.2h349l-77.7-211.2
			C1342.7,1179.3,1331,1171.2,1317.9,1171.2z"/>
		<path class="st5" d="M1075.8,1398.8H1582c11.9,0,21.6,9.7,21.6,21.6v4.8l0,0h-506.2c-11.9,0-21.6-9.7-21.6-21.6V1398.8
			L1075.8,1398.8z"/>
		<path class="st5" d="M1323.9,1160.6h-305.7c-11.5,0-20.9,9.4-20.9,20.9c0,2.5,0.4,4.9,1.3,7.2l77,209.4h357.9l-79.7-216.6
			C1349.3,1169,1337.3,1160.6,1323.9,1160.6z"/>
		
			<ellipse transform="matrix(0.6691 -0.7431 0.7431 0.6691 -560.8025 1318.6787)" class="st5" cx="1200.5" cy="1289.1" rx="19.6" ry="24.2"/>
		<rect x="1460.6" y="1408.2" class="st17" width="21.4" height="7.7"/>
		<rect x="1501.5" y="1408.2" class="st17" width="21.4" height="7.7"/>
	</g>
	<path class="st2" d="M1597.7,694.9c0,0-73.7-34.6-119.4,37.9c-45.8,72.7,17,105-15.8,142.1c-35.5,40.2-80.4,63.7-44,143.3
		c37.1,81.2-57.5,51.2-37.1,141.6h160.5c0,0,69.1-24.2,48.3-83.7s-65.1-67.8-23.5-120.3c31.2-39.5,175.4-31.4,188.4-28
		s68.1,22.3,68.1,22.3s21.9-65.7-9.4-101.8c-39.7-45.7-105.9-12-118-65.7c-8.2-36.2-24-78.2-50.3-86.2
		C1617.2,687.8,1597.7,694.9,1597.7,694.9z"/>
	<path class="st1" d="M1591.1,704c0,0-15.5-24.1-94.2,30.8c-48.6,33.9-14.6,103-47.4,140.1c-35.5,40.2-80.4,63.7-44,143.3
		c37.1,81.2-57.5,51.2-37.1,141.6"/>
	<path class="st15" d="M1653.9,821c0,0-2.5,54.7,17.5,82.7c13.6,19,1.4,17.5,48.7,22.9c0,0,4.9,70.2-104.6,70.2
		c-81.3,0-48.8-41.1-48.8-41.1s33.9-49.2,19.3-134.7L1653.9,821z"/>
	<path class="st2" d="M1654.9,816.8c0,0,2.1,109.9-85.8,109.9c-1.8,0-3.5-0.4-5.1-1.2c4.6-3.2,33.5-26.9,19.2-110.1h71.7
		C1654.9,815.4,1654.9,815.9,1654.9,816.8L1654.9,816.8z"/>
	<path id="HEAD" class="st15" d="M1657.3,815c0,0-12.6,93.9-72.2,94.4c-39.2,0.3-61.9-54.7-71.1-83.6c-10.5-32.9,0.6-98.8,56.6-97.9
		c48.6,0.7,74,67,74,67L1657.3,815z"/>
	<path class="st1" d="M1645.9,810.2c0,0-2.4-8.1-0.2-15.5c1.4-4.7,4.7-9,11.5-10.7"/>
	<line class="st1" x1="1657.2" y1="800.1" x2="1645.7" y2="794.8"/>
	<path class="st15" d="M1746.3,955c0,0-34.4,89.1,20.6,137c17.7,15.4,43.9,1.3,43.9,1.3"/>
	<path class="st15" d="M1772.1,1045.4c19.6,62.1,45.6,149.8,45.6,149.8c-103.1,5.6-258.5,68.1-277.5,75.9
		c-31.4,7-75.9,32.4-84.5,37.6c-8,4.6-20.6,17.2-24.4,22.2c-4,5.3-13.3,24.3-13.3,24.3c4.1,2,9,1,11.9-2.5c3.7-4,9.8-13.6,14.8-18.3
		c-4.5,11.2-8.7,22.9-8.7,22.9s11.1,2.7,25.3-1.9c6.8-2.2,14.4-15.3,22.3-23.9s25.4-4.5,42.8-7.5s29.5-28.5,29.5-28.5l-0.2-0.4
		c45.2,0.8,283.2,2.3,335.1-46.1c31-28.9-9.2-217.3-60.3-300.8c-22.5-36.7-56-31.8-71.7-8.4c-5.2,7.8-11.5,12.3-11.8,23.4"/>
	<path class="st1" d="M1445,1357.9c-0.2,0-0.4,0-0.6-0.1c-0.5-0.2-0.8-0.8-0.6-1.3c0,0,0-0.1,0-0.1c1.3-3.2,13.2-31.2,18.5-34.9
		c9.1-6.6,20.9-15.2,20.9-15.2l1.2,1.7c0,0-11.8,8.6-20.9,15.2c-4,2.9-14.2,25.6-17.8,34C1445.7,1357.6,1445.4,1357.8,1445,1357.9z"
		/>
	<path class="st1" d="M1456.3,1356c-0.6,0.1-1.1-0.3-1.2-0.9c0-0.2,0-0.4,0.1-0.6c0.5-1,11.9-25.7,17.2-29.6
		c9.1-6.6,20.9-15.2,20.9-15.2l1.2,1.7c0,0-11.8,8.6-20.9,15.2c-4,2.9-13.3,21.7-16.5,28.8C1457,1355.7,1456.7,1355.9,1456.3,1356z"
		/>
	<path class="st2" d="M1640.9,837c0,0-0.2,120.9,65.3,129.6s117.3-34.7,117.3-34.7"/>
	<polyline class="st1" points="1559.9,816.6 1556.4,845.8 1568.7,853 	"/>
	<ellipse transform="matrix(0.9436 -0.3312 0.3312 0.9436 -179.234 570.1804)" class="st2" cx="1583.5" cy="811" rx="5" ry="6.6"/>
	
		<ellipse transform="matrix(0.9436 -0.3312 0.3312 0.9436 -185.4781 556.1664)" class="st2" cx="1539.3" cy="822.3" rx="5" ry="6.6"/>
	<path class="st1" d="M1567.7,790.9c0,0,8.6-10.3,27.3-1.3"/>
	<path class="st1" d="M1522.1,805.3c0,0,4.9-12.6,22.8-7.2"/>
	<path class="st2" d="M1549.1,723.2c0,0,28.9-12,38.6,16.6s25.4,52.5,57.1,35.9s18.7-38.2,18.7-38.2"/>
	<circle class="st18" cx="1648.9" cy="794.8" r="20.7"/>
	<path class="st1" d="M1641.1,807.4c0,0-2.4-8.1-0.2-15.5c1.4-4.7,4.6-9,11.5-10.7"/>
	<line class="st1" x1="1652.4" y1="797.2" x2="1640.9" y2="791.9"/>
	<path class="st6" d="M1639.8,772.8c-5.9-53.8-59.5-84.6-60-84.8l25.8,1.8c3.1,1.1,32.8,5.2,60.6,76.6L1639.8,772.8z"/>
	
		<ellipse transform="matrix(0.9912 -0.1323 0.1323 0.9912 -91.9971 225.9625)" class="st6" cx="1655" cy="805.5" rx="24.8" ry="40.5"/>
	
		<ellipse transform="matrix(0.9912 -0.1323 0.1323 0.9912 -91.7717 227.0865)" class="st6" cx="1663.6" cy="804.4" rx="24.8" ry="40.5"/>
	<path class="st1" d="M1568.7,867.8c0,0,19.3,3.3,27.9-15.7"/>
</g>
</svg>
