<?xml version="1.0" encoding="utf-8"?>
<!-- Generator: Adobe Illustrator 24.0.1, SVG Export Plug-In . SVG Version: 6.00 Build 0)  -->
<svg version="1.1" id="Camada_1" xmlns="http://www.w3.org/2000/svg" xmlns:xlink="http://www.w3.org/1999/xlink" x="0px" y="0px"
	 viewBox="0 0 3086.9 2459.9" style="enable-background:new 0 0 3086.9 2459.9;" xml:space="preserve">
<style type="text/css">
	.st0{fill:#EFAF00;stroke:#000000;stroke-width:6;stroke-linecap:round;stroke-linejoin:round;}
	.st1{fill:#1C0E0C;}
	.st2{fill:#C5DCDD;stroke:#000000;stroke-width:6;stroke-linecap:round;stroke-linejoin:round;}
	.st3{fill:#F4F1ED;stroke:#070707;stroke-width:6;stroke-linecap:round;stroke-linejoin:round;}
	.st4{fill:none;stroke:#070707;stroke-width:6;stroke-linecap:round;stroke-linejoin:round;}
	.st5{fill:#FFEFF0;}
	.st6{fill:#F46F40;stroke:#000000;stroke-width:6;stroke-linecap:round;stroke-linejoin:round;}
	.st7{fill:#EFAF00;}
	.st8{fill:#FFFFFF;}
	.st9{fill:#070707;}
	.st10{fill:#F4F1ED;}
	.st11{fill:#C5DCDD;}
	.st12{fill:#FCBE9F;stroke:#070707;stroke-width:6;stroke-linecap:round;stroke-linejoin:round;}
	.st13{fill:none;stroke:#070707;stroke-width:4;stroke-linecap:round;stroke-linejoin:round;}
	.st14{fill:none;stroke:#000000;stroke-width:6;stroke-linecap:round;stroke-linejoin:round;}
	.st15{fill:#FCBE9F;}
	.st16{fill:#F7F3EF;stroke:#070707;stroke-width:4;stroke-linecap:round;stroke-linejoin:round;}
</style>
<g id="Layer_1">
	<g id="FIGURES">
		<path class="st0" d="M726.6,531.1h381.5c20,0,36.3,16.2,36.3,36.3v490.6c0,20-16.2,36.3-36.3,36.3H726.6
			c-20,0-36.3-16.2-36.3-36.3V567.3C690.3,547.3,706.5,531.1,726.6,531.1z"/>
		<rect x="958.4" y="531.1" class="st1" width="44.1" height="563.6"/>
		<path class="st2" d="M2727.8,1357.3h-381.5c-20,0-36.3-16.2-36.3-36.3V949.6c0-20,16.2-36.3,36.3-36.3h381.5
			c20,0,36.3,16.2,36.3,36.3V1321C2764,1341.1,2747.8,1357.3,2727.8,1357.3z"/>
		<rect x="2451.8" y="913.4" class="st1" width="44.1" height="444.3"/>
	</g>
	<g id="PLANT">
		<path class="st3" d="M2712.1,1764.2c43.1,25.7,210.9-461.6,202.9-491.6C2915,1272.6,2635.9,1718.7,2712.1,1764.2z"/>
		<path class="st4" d="M2678.5,1904.5c0,0,47.7-319.3,234.2-623.5"/>
		<path class="st3" d="M2858.6,1653.4c0,0-89.6,234.7-140.8,209.1C2667.5,1837.4,2858.6,1653.4,2858.6,1653.4z"/>
		<path class="st4" d="M2690.9,1904.5c0,0,111.2-175.3,167.7-250.2"/>
		<path class="st3" d="M2728.7,1106.3c0,0,15,529.6-50.2,529.6C2602.2,1635.9,2728.7,1106.3,2728.7,1106.3z"/>
		<path class="st4" d="M2666.5,1904.5c0,0,6.5-470.4,62.2-794.6"/>
		<path class="st3" d="M2508.1,1395.8c0,0,39.2,368.1,104.4,356.7C2678.5,1741.1,2508.1,1395.8,2508.1,1395.8z"/>
		<line class="st4" x1="2510" y1="1399.6" x2="2657.1" y2="1906.4"/>
		<path class="st3" d="M2672.9,2075.2L2672.9,2075.2c-49.6,0-89.9-40.2-89.9-89.9v-23.7c0-11.2,5-21.8,13.7-28.9l23.9-19.7
			c6.7-5.5,15.1-8.5,23.8-8.5h57c8.7,0,17.1,3,23.8,8.5l23.9,19.7c8.6,7.1,13.7,17.7,13.7,28.9v23.7
			C2762.8,2035,2722.5,2075.2,2672.9,2075.2z"/>
		<line class="st4" x1="2688.7" y1="1448.3" x2="2726.3" y2="1413.6"/>
		<line class="st4" x1="2687.9" y1="1466.1" x2="2725.5" y2="1431.4"/>
		<line class="st4" x1="2687.9" y1="1299" x2="2699.4" y2="1330.4"/>
		<line class="st4" x1="2764.1" y1="1593.6" x2="2812.3" y2="1593.6"/>
		<line class="st4" x1="2767.5" y1="1581.8" x2="2815.7" y2="1581.8"/>
		<line class="st4" x1="2841.4" y1="1410.6" x2="2879.9" y2="1410.6"/>
		<line class="st4" x1="2551.4" y1="1647.1" x2="2588" y2="1668.4"/>
		<line class="st4" x1="2554.8" y1="1663.2" x2="2592.2" y2="1685.3"/>
		<line class="st4" x1="2744.6" y1="1821.1" x2="2777.7" y2="1821.1"/>
	</g>
	<g id="WEB_PAGE">
		<g id="WEB_PAGE-2">
			<path class="st3" d="M1038.2,420H2413c20.5,0,37.1,16.6,37.1,37.1V1415c0,20.5-16.6,37.1-37.1,37.1H1038.2
				c-20.5,0-37.1-16.6-37.1-37.1V457.2C1001.1,436.7,1017.7,420,1038.2,420z"/>
			<line class="st4" x1="1001.1" y1="505.9" x2="2450.1" y2="505.9"/>
			<path class="st5" d="M1209.4,455.4h7.3c5.8,0,10.5,4.7,10.5,10.5v7.3c0,5.8-4.7,10.5-10.5,10.5h-7.3c-5.8,0-10.5-4.7-10.5-10.5
				v-7.3C1198.9,460.1,1203.6,455.4,1209.4,455.4z"/>
			<path class="st5" d="M1161.1,455.4h7.3c5.8,0,10.5,4.7,10.5,10.5v7.3c0,5.8-4.7,10.5-10.5,10.5h-7.3c-5.8,0-10.5-4.7-10.5-10.5
				v-7.3C1150.6,460.1,1155.3,455.4,1161.1,455.4z"/>
			<path class="st5" d="M1112.8,455.4h7.3c5.8,0,10.5,4.7,10.5,10.5v7.3c0,5.8-4.7,10.5-10.5,10.5h-7.3c-5.8,0-10.5-4.7-10.5-10.5
				v-7.3C1102.3,460.1,1107,455.4,1112.8,455.4z"/>
			<path class="st2" d="M1203.6,450.2h7.3c5.8,0,10.5,4.7,10.5,10.5v7.3c0,5.8-4.7,10.5-10.5,10.5h-7.3c-5.8,0-10.5-4.7-10.5-10.5
				v-7.3C1193.1,454.9,1197.8,450.2,1203.6,450.2z"/>
			<path class="st0" d="M1155.3,450.2h7.3c5.8,0,10.5,4.7,10.5,10.5v7.3c0,5.8-4.7,10.5-10.5,10.5h-7.3c-5.8,0-10.5-4.7-10.5-10.5
				v-7.3C1144.8,454.9,1149.5,450.2,1155.3,450.2z"/>
			<path class="st6" d="M1106.9,450.2h7.3c5.8,0,10.5,4.7,10.5,10.5v7.3c0,5.8-4.7,10.5-10.5,10.5h-7.3c-5.8,0-10.5-4.7-10.5-10.5
				v-7.3C1096.5,454.9,1101.2,450.2,1106.9,450.2z"/>
		</g>
		<g id="ICONS_PAGE">
			<path class="st4" d="M1277.1,1149.3h914.1c9.7,0,17.6,7.9,17.6,17.6v153.8c0,9.7-7.9,17.6-17.6,17.6h-914.1
				c-9.7,0-17.6-7.9-17.6-17.6v-153.8C1259.5,1157.1,1267.4,1149.3,1277.1,1149.3z"/>
			<g id="DELIVERY">
				<rect x="1935.3" y="1201.8" class="st0" width="109.6" height="84.6"/>
				<polygon class="st3" points="2091.3,1286.4 2044.9,1286.4 2044.9,1222.9 2068.1,1222.9 2091.3,1256.6 				"/>
				<polygon class="st3" points="2053.3,1234.7 2065.1,1234.7 2077,1251.9 2053.3,1251.9 				"/>
				<circle class="st3" cx="1967.6" cy="1287.3" r="11.9"/>
				<circle class="st3" cx="2067.9" cy="1287.3" r="11.9"/>
				<line class="st4" x1="2022.9" y1="1222.9" x2="1987.9" y2="1222.9"/>
				<line class="st4" x1="2010.3" y1="1237.4" x2="1975.3" y2="1237.4"/>
				<line class="st4" x1="2022.9" y1="1251.9" x2="1987.9" y2="1251.9"/>
			</g>
			<g id="GLOBE">
				<circle class="st3" cx="1833.9" cy="1249.8" r="49.2"/>
				<line class="st4" x1="1834.1" y1="1200.7" x2="1834.1" y2="1299.2"/>
				<path class="st3" d="M1842.8,1201c0,0,32.8,38.1,0,97.8"/>
				<path class="st4" d="M1825.4,1201c0,0-32.8,38.1,0,97.8"/>
				<line class="st4" x1="1784.9" y1="1249.9" x2="1883.3" y2="1249.9"/>
				<path class="st4" d="M1803.4,1288.4c0,0,29.8-17.9,60.7,0"/>
				<path class="st4" d="M1803.4,1211.7c0,0,29.8,17.9,60.7,0"/>
			</g>
			<g id="SEARCH">
				<ellipse class="st5" cx="1691.3" cy="1239.7" rx="36.1" ry="34.3"/>
				<ellipse class="st0" cx="1684.5" cy="1235.9" rx="37.1" ry="35.3"/>
				<path class="st4" d="M1703.1,1218.3c9.7,9.1,10.3,24.3,1.3,34c-0.4,0.4-0.8,0.9-1.3,1.3"/>
				<path class="st0" d="M1710.8,1273.3l23,24.2c2,2.1,5.4,2.3,7.6,0.4l0,0c2.1-1.8,2.4-4.9,0.6-7c-0.1-0.1-0.1-0.1-0.2-0.2
					l-23-24.2c-2-2.1-5.4-2.3-7.6-0.4l0,0c-2.1,1.8-2.4,4.9-0.6,7C1710.6,1273.1,1710.7,1273.2,1710.8,1273.3z"/>
			</g>
			<g id="PRESENT">
				<path class="st2" d="M1520.6,1215.3h69.7c3.7,0,6.6,3,6.6,6.6v69.7c0,3.7-3,6.6-6.6,6.6h-69.7c-3.7,0-6.6-3-6.6-6.6V1222
					C1514,1218.3,1517,1215.3,1520.6,1215.3z"/>
				<path class="st2" d="M1507.6,1215.3h63.5c3.7,0,6.6,3,6.6,6.6v69.7c0,3.7-3,6.6-6.6,6.6h-63.5c-3.7,0-6.6-3-6.6-6.6V1222
					C1500.9,1218.3,1503.9,1215.3,1507.6,1215.3z"/>
				<line class="st4" x1="1540.6" y1="1302.8" x2="1540.6" y2="1210.1"/>
				<line class="st4" x1="1496.8" y1="1256.6" x2="1600.7" y2="1256.6"/>
				<path class="st4" d="M1553,1188.7h6.1c6.9,0,12.4,5.6,12.4,12.4v0v1.8c0,6.9-5.6,12.4-12.4,12.4h0h-18.5l0,0v-14.2
					C1540.6,1194.3,1546.1,1188.7,1553,1188.7L1553,1188.7L1553,1188.7z"/>
				<path class="st4" d="M1540.4,1215.3h-16.9c-5.4,0-9.8-4.4-9.8-9.8v-1.4c0-5.4,4.4-9.8,9.8-9.8h7.1c5.4,0,9.8,4.4,9.8,9.8
					L1540.4,1215.3L1540.4,1215.3L1540.4,1215.3z"/>
				<polyline class="st4" points="1556,1232.3 1540.4,1215.3 1530.9,1224.9 				"/>
			</g>
			<g id="PACK">
				<path class="st4" d="M1396.2,1187.9h1.5c6,0,10.9,4.9,10.9,10.9v14.8l0,0h-23.3l0,0v-14.8
					C1385.3,1192.8,1390.2,1187.9,1396.2,1187.9z"/>
				<path class="st4" d="M1388,1187.9h1.5c6,0,10.9,4.9,10.9,10.9v14.8l0,0h-23.3l0,0v-14.8C1377.1,1192.8,1382,1187.9,1388,1187.9z
					"/>
				<polygon class="st1" points="1432.7,1299.2 1407.6,1299.2 1418,1213.6 1422.2,1213.6 				"/>
				<polygon class="st0" points="1418,1213.6 1407.6,1299.2 1347.8,1299.2 1358.3,1213.6 				"/>
			</g>
		</g>
		<g id="BAG_PAGE">
			<path class="st1" d="M1699.7,800.9h201.9c9.7,0,17.6,7.9,17.6,17.6v201.9c0,9.7-7.9,17.6-17.6,17.6h-201.9
				c-9.7,0-17.6-7.9-17.6-17.6V818.5C1682.1,808.8,1690,800.9,1699.7,800.9z"/>
			<path class="st3" d="M1689.8,790.9h201.9c9.7,0,17.6,7.9,17.6,17.6v201.9c0,9.7-7.9,17.6-17.6,17.6h-201.9
				c-9.7,0-17.6-7.9-17.6-17.6V808.5C1672.2,798.8,1680.1,790.9,1689.8,790.9z"/>
			<g id="BAG">
				<path class="st7" d="M1832.8,1002.2h-67.5c-23.4,0-42.4-18.9-42.4-42.3c0-3.2,0.4-6.4,1.1-9.6l13.6-48.1c1-4.2,4.7-7.2,9-7.2
					h104.8c4.3,0,8,3,9,7.2l13.6,48.1c5.3,22.8-8.9,45.6-31.8,50.8C1839.2,1001.8,1836,1002.2,1832.8,1002.2z"/>
				<path class="st4" d="M1824.6,994.9h-67.5c-23.4,0-42.4-19-42.4-42.4c0-3.2,0.4-6.4,1.1-9.6l13.6-48.1c1-4.2,4.7-7.2,9-7.2h104.8
					c4.3,0,8,3,9,7.2l13.6,48.1c5.3,22.8-8.9,45.6-31.7,50.8C1831.1,994.5,1827.8,994.9,1824.6,994.9z"/>
				<path class="st4" d="M1831.7,879.1c0,2.9-0.2,5.7-0.7,8.5h-80.4c-0.4-2.8-0.7-5.7-0.7-8.5c0-26.3,18.3-47.7,40.8-47.7
					S1831.7,852.8,1831.7,879.1z"/>
				<path class="st4" d="M1850.1,890.6c-1.4,31.4-27.9,56.5-59.2,56.5c-30.4,0-57.8-25-59.2-56.4c1.7-1.9,4.2-2.9,6.7-2.9h104.8
					C1845.8,887.7,1848.3,888.7,1850.1,890.6z"/>
				<rect x="1786.8" y="937.8" class="st4" width="8.2" height="19.2"/>
			</g>
			<circle class="st2" cx="1862.4" cy="793.8" r="26.2"/>
			<polyline class="st4" points="1852.7,793.1 1861.3,805.2 1872,782.4 			"/>
		</g>
		<g id="SHOES_PAGE">
			<path class="st4" d="M1686.7,642.8h510.1c8,0,14.5,6.5,14.5,14.5v75.5c0,8-6.5,14.5-14.5,14.5h-510.1c-8,0-14.5-6.5-14.5-14.5
				v-75.5C1672.2,649.3,1678.7,642.8,1686.7,642.8z"/>
			<path class="st3" d="M1830.7,729.6h-74.2c0,0-20.3-32.6-27.2-32.6c-4,0-5.6,32.6-5.6,32.6h-4.6c0,0-10.8-66.6,1.2-70.4
				c7.8-2.5,28.9,4.1,34.7,30.2c4.9,22,33.1,26,36.2,11.4C1791.1,700.9,1829.3,712.2,1830.7,729.6z"/>
			<path class="st3" d="M2020.9,713.6c-0.1,1.5-2.9,8.9-2.9,8.9l-142.6-4.8v-8c0.2-10.3,2.5-20.5,6.9-29.9c3.7-7.7,8.8-5.8,8.8-5.8
				s13.9,13.6,29.6,13.6c2.8,0,5.3-1.5,6.7-3.9c0.9-1.4,1.6-3,2.1-4.6c0.7-2.1,1.1-4.3,1.4-6.5c0.4-3.2,3.4-5.5,6.6-5.1
				c0.7,0.1,1.3,0.3,1.9,0.6c6.1,3.2,13.6,10.2,33.6,21c1,0.5,2,1.1,3.1,1.7C2000.4,703.5,2020.7,698.8,2020.9,713.6z"/>
			<path class="st0" d="M2004.9,729.6c4.1,0,9.2-1.9,11.9-4.9c3.4-4,4.8-9.3,3.7-14.5h-0.1c-1.2,6.2-6.5,10.8-12.9,10.9l-123.6-3.6
				c-3.9-0.1-7.3-2.7-8.5-6.4v8.3c0,5.6,4.1,10.2,9.1,10.2L2004.9,729.6z"/>
			<path class="st0" d="M1978.5,692c-30.9-10.6-46.3-15.3-48.9-12.8c0.7-2.1,1.1-4.3,1.4-6.5c0.4-3.2,3.4-5.5,6.6-5.1
				c0.7,0.1,1.3,0.3,1.9,0.6C1945.6,671.3,1955.9,680.7,1978.5,692z"/>
			<path class="st4" d="M1944.8,678.1l5.6-8.5c1.3-2,4.1-2.6,6.1-1.3c0.1,0,0.1,0.1,0.2,0.1l0,0c1.8,1.3,2.3,3.7,1.3,5.7l-0.8,1.4"
				/>
			<path class="st4" d="M1959.2,682.5l4.1-6.1c1.2-1.7,3.6-2.2,5.4-1c0,0,0.1,0.1,0.1,0.1l0,0c1.5,1.2,2,3.3,1,5l-1.5,2.7"/>
			<path class="st4" d="M1979.8,689c1.6-2.2,1.2-4.8-0.4-6l0,0c-1.8-1.3-4.3-1-5.7,0.8c0,0.1-0.1,0.1-0.1,0.2l-2.5,4.1"/>
			<circle class="st6" cx="2164" cy="642.8" r="22.4"/>
			<line class="st4" x1="2156.7" y1="650.4" x2="2171.4" y2="635.1"/>
			<line class="st4" x1="2171.4" y1="650.4" x2="2156.7" y2="635.1"/>
			<path class="st3" d="M2063.8,693.8c0,0-16,35.8,7.2,35.8h107.9c0,0,4.3-17.5-23.7-22c-3.9-0.6-15-2.8-15-2.8s3.5,14-21.2,12.9
				S2083.2,695.6,2063.8,693.8z"/>
		</g>
		<g id="SHIRT_PAGE">
			<path class="st1" d="M1292.8,658.7h344.1c9.7,0,17.6,7.9,17.6,17.6v344.1c0,9.7-7.9,17.6-17.6,17.6h-344.1
				c-9.7,0-17.6-7.9-17.6-17.6V676.3C1275.2,666.6,1283.1,658.7,1292.8,658.7z"/>
			<path class="st0" d="M1277.1,642.8h344.1c9.7,0,17.6,7.9,17.6,17.6v344.1c0,9.7-7.9,17.6-17.6,17.6h-344.1
				c-9.7,0-17.6-7.9-17.6-17.6V660.4C1259.5,650.6,1267.4,642.8,1277.1,642.8z"/>
			<path class="st1" d="M1590.2,796l-50.3,42.7v114.3h-167.6V838.7l-50.3-42.7l38.6-48c11.7-10.2,29.5-11.8,42.5-11.8h110.8
				c26,0,32.6,4.9,39.3,10.2L1590.2,796z"/>
			<path class="st3" d="M1586,788.2l-51.3,43.4V948H1364V831.7l-51.2-43.4l39.3-49c11.9-10.4,30.1-12,43.3-12h112.8
				c26.5,0,33.2,5,40,10.4L1586,788.2z"/>
			<line class="st4" x1="1364" y1="831.7" x2="1364" y2="790.5"/>
			<line class="st4" x1="1534.7" y1="832" x2="1534.7" y2="790.9"/>
			<line class="st4" x1="1449.4" y1="765.2" x2="1449.4" y2="948"/>
			<path class="st3" d="M1502.4,727.3h-38.4c-0.7,0-1.4,0.5-1.6,1.2l-12.9,36.7l-13.6-36.4c-0.3-0.9-1.2-1.5-2.1-1.5h-37.9
				l18.4-15.7c4.1-3.5,9.3-5.4,14.8-5.4h40.3c5.4,0,10.6,1.9,14.8,5.4L1502.4,727.3z"/>
			<path class="st3" d="M1422.1,711.7l13.1,15.6l-15,21.4l-24.5-21.4l19.2-16.2C1417,709.3,1420.2,709.6,1422.1,711.7
				C1422.1,711.7,1422.1,711.7,1422.1,711.7z"/>
			<path class="st3" d="M1476.1,711.7l-13.1,15.6l15,21.4l24.5-21.4l-19.2-16.2C1481.1,709.3,1477.9,709.6,1476.1,711.7
				C1476.1,711.7,1476.1,711.7,1476.1,711.7z"/>
			<path class="st3" d="M1475,793.8h34l0,0v32.2c0,3.5-2.8,6.3-6.3,6.3h-21.3c-3.5,0-6.3-2.8-6.3-6.3L1475,793.8L1475,793.8z"/>
			<circle class="st1" cx="1438.9" cy="778.6" r="4.1"/>
			<circle class="st1" cx="1438.9" cy="810.2" r="4.1"/>
			<circle class="st1" cx="1438.9" cy="841.8" r="4.1"/>
			<circle class="st1" cx="1438.9" cy="873.4" r="4.1"/>
			<circle class="st1" cx="1438.9" cy="905" r="4.1"/>
			<circle class="st3" cx="1570" cy="650.6" r="41.1"/>
			<path class="st1" d="M1559.4,632.2c-5.3,0-8.8,4.1-8.8,10.1c0,6.5,3.2,10.3,8.7,10.3s8.7-4,8.7-10.5
				C1568,636,1564.7,632.2,1559.4,632.2z M1559.4,648.8c-3.6,0-4.2-4.1-4.2-6.5c0-4,1.5-6.2,4.2-6.2c3.4,0,4.1,3.3,4.1,6.2
				C1563.5,646.6,1562.1,648.8,1559.4,648.8L1559.4,648.8z"/>
			<path class="st1" d="M1581.9,646.8c-5.2,0-8.8,4.2-8.8,10.1c0,6.4,3.3,10.3,8.7,10.3s8.7-4,8.7-10.5
				C1590.5,650.6,1587.2,646.8,1581.9,646.8z M1581.8,663.4c-3.6,0-4.2-4.1-4.2-6.5c0-4,1.5-6.2,4.2-6.2c3.4,0,4.1,3.3,4.1,6.2
				C1585.9,661,1584.4,663.4,1581.8,663.4L1581.8,663.4z"/>
			<polygon class="st1" points="1584.3,632.7 1561.4,666.8 1556.8,666.8 1579.7,632.7 			"/>
		</g>
		<g id="PRESENT_PAGE">
			<path class="st1" d="M1996.4,800.9h201.9c9.7,0,17.6,7.9,17.6,17.6v201.9c0,9.7-7.9,17.6-17.6,17.6h-201.9
				c-9.7,0-17.6-7.9-17.6-17.6V818.5C1978.8,808.8,1986.6,800.9,1996.4,800.9z"/>
			<path class="st2" d="M1986.5,790.9h201.9c9.7,0,17.6,7.9,17.6,17.6v201.9c0,9.7-7.9,17.6-17.6,17.6h-201.9
				c-9.7,0-17.6-7.9-17.6-17.6V808.5C1968.9,798.8,1976.8,790.9,1986.5,790.9z"/>
			<g id="PRESENT-2">
				<path class="st8" d="M2044.4,882.1h108.1c3.7,0,6.6,3,6.6,6.6v94.1c0,3.7-3,6.6-6.6,6.6h-108.1c-3.7,0-6.6-3-6.6-6.6v-94.1
					C2037.8,885.1,2040.7,882.1,2044.4,882.1z"/>
				<path class="st4" d="M2159.3,884.5v93.8c0,6.1-5,11.1-11.1,11.1c0,0,0,0,0,0h-27c6.2,0,11.1-5,11.1-11.1v-93.8
					c0-6.2-5-11.2-11.1-11.2h27C2154.3,873.4,2159.3,878.4,2159.3,884.5z"/>
				<path class="st4" d="M2132.3,884.5v93.8c0,6.2-5,11.1-11.1,11.1h-85c-6.2,0-11.2-4.9-11.2-11.1c0,0,0,0,0-0.1v-93.8
					c0-6.2,5-11.2,11.2-11.2h85C2127.3,873.4,2132.3,878.3,2132.3,884.5C2132.3,884.5,2132.3,884.5,2132.3,884.5z"/>
				<line class="st4" x1="2080.4" y1="994.6" x2="2080.4" y2="865"/>
				<line class="st4" x1="2020.4" y1="931.1" x2="2163.4" y2="931.1"/>
				<path class="st4" d="M2097.8,836.2h8.5c9.6,0,17.4,7.8,17.4,17.4v2.5c0,9.6-7.8,17.4-17.4,17.4h-25.9l0,0v-19.9
					C2080.4,843.9,2088.2,836.2,2097.8,836.2z"/>
				<path class="st4" d="M2080.2,873.4h-23.7c-7.6,0-13.7-6.1-13.7-13.7v-2c0-7.6,6.1-13.7,13.7-13.7h9.9c7.6,0,13.7,6.1,13.7,13.7
					V873.4L2080.2,873.4z"/>
				<polyline class="st4" points="2102.1,897.2 2080.2,873.4 2066.8,886.8 				"/>
			</g>
		</g>
	</g>
	<g id="ABSTRACT_ELEMENTS">
		<circle class="st4" cx="368.3" cy="800.9" r="38.6"/>
		<circle class="st4" cx="464.4" cy="635.1" r="12.2"/>
	</g>
	<g id="PACKAGES">
		<path class="st4" d="M1788.2,1668.1h4.7c18.3,0,33.1,14.8,33.1,33.1v32l0,0h-70.9l0,0v-32
			C1755.1,1682.9,1769.9,1668.1,1788.2,1668.1z"/>
		<path class="st4" d="M1812.1,1668.1h4.7c18.3,0,33.1,14.8,33.1,33.1v32l0,0H1779l0,0v-32C1779,1682.9,1793.8,1668.1,1812.1,1668.1
			C1812.1,1668.1,1812.1,1668.1,1812.1,1668.1z"/>
		<polygon class="st1" points="1956.5,2075.2 1861.5,2075.2 1901.8,1733.2 1916.2,1733.2 		"/>
		<polygon class="st4" points="1901.8,1733.2 1861.5,2075.2 1640.9,2075.2 1681.1,1733.2 		"/>
		<path class="st8" d="M1873.6,1837.6h-32.3l4.1-47.1c0.9-9.1,8.5-16,17.6-16.2l0,0c8-0.1,14.7,6.3,14.8,14.3c0,0.6,0,1.2-0.1,1.9
			L1873.6,1837.6z"/>
		<path class="st4" d="M1870.8,1834.7h-32.3l4.1-47.1c0.9-9.1,8.5-16,17.6-16.2l0,0c8.1-0.1,14.7,6.3,14.8,14.3c0,0.6,0,1.2-0.1,1.8
			L1870.8,1834.7z"/>
		
			<ellipse transform="matrix(0.7224 -0.6915 0.6915 0.7224 -717.9217 1780.9698)" class="st4" cx="1859" cy="1784.6" rx="3.6" ry="3.3"/>
		<path class="st4" d="M1859.1,1784.2l4.6-53.4c0.3-3.7,3.4-6.5,7.1-6.5l0,0c4,0,7.2,3.2,7.2,7.2c0,0,0,0,0,0"/>
		<path class="st9" d="M1857,1817.7c0.8-0.1,1.6-0.5,2.2-1.1c0.5-0.5,0.8-1.2,0.9-1.9c0.1-0.7-0.1-1.3-0.6-1.8
			c-0.6-0.5-1.3-0.9-2-1.1l-1.7-0.5c-1-0.3-2-0.6-2.9-1.1c-0.8-0.4-1.4-1-1.8-1.7c-0.5-0.9-0.6-1.9-0.5-2.9c0.1-1.4,0.7-2.8,1.8-3.8
			c1.2-1,2.8-1.7,4.4-1.7h1.7c0.8,0.1,1.6,0.3,2.4,0.6c0.7,0.3,1.2,0.8,1.7,1.3c0.3,0.4,0.6,0.9,0.8,1.4c0.2,0.4,0.2,0.9,0.2,1.3
			c-0.1,0.9-0.9,1.6-1.8,1.7c-0.8,0-1.5-0.6-1.6-1.4c0,0,0,0,0,0c-0.1-1.1-0.9-1.9-1.9-2.2l-1.7-0.1c-0.7,0.2-1.3,0.5-1.8,0.9
			c-0.5,0.4-0.8,1-0.8,1.7c-0.1,0.6,0.1,1.2,0.4,1.6c0.5,0.4,1.1,0.8,1.7,1l1.7,0.5c1.1,0.3,1.9,0.6,2.6,0.8
			c0.6,0.2,1.2,0.6,1.7,1.1c0.5,0.5,0.9,1.1,1.1,1.8c0.2,0.7,0.3,1.5,0.3,2.2c-0.1,1-0.4,2-1,2.9c-0.6,0.9-1.4,1.7-2.3,2.2
			c-1,0.6-2.2,0.9-3.4,1h-1.7c-0.9-0.1-1.8-0.3-2.7-0.7c-0.7-0.3-1.3-0.8-1.8-1.4c-0.4-0.5-0.8-1.1-1-1.8c-0.2-0.6-0.3-1.2-0.2-1.8
			c0-0.5,0.3-0.9,0.6-1.2c0.3-0.3,0.8-0.5,1.3-0.5c0.4,0,0.7,0.1,1,0.3c0.3,0.2,0.4,0.5,0.5,0.8c0.1,0.6,0.3,1.1,0.5,1.7
			c0.2,0.4,0.4,0.8,0.7,1.1c0.4,0.4,0.9,0.6,1.4,0.7L1857,1817.7z"/>
		<path class="st9" d="M1855.7,1822.4L1855.7,1822.4c-0.5,0-0.7-0.4-0.7-0.8c0,0,0,0,0,0l2-23.3c0-0.4,0.4-0.7,0.8-0.6
			c0.4,0,0.7,0.4,0.7,0.8l-2,23.2C1856.4,1822.1,1856.1,1822.4,1855.7,1822.4z"/>
		<path class="st4" d="M1708.1,1780.4h3.4c13.3,0,24,10.7,24,24v23.2l0,0h-51.4l0,0v-23.2
			C1684.1,1791.1,1694.8,1780.4,1708.1,1780.4C1708.1,1780.4,1708.1,1780.4,1708.1,1780.4z"/>
		<path class="st4" d="M1725.5,1780.4h3.4c13.3,0,24,10.7,24,24v23.2l0,0h-51.4l0,0v-23.2
			C1701.4,1791.1,1712.2,1780.4,1725.5,1780.4L1725.5,1780.4z"/>
		<polygon class="st3" points="1830.2,2075.8 1761.3,2075.8 1790.5,1827.6 1801,1827.6 		"/>
		<polygon class="st3" points="1790.5,1827.6 1761.3,2075.8 1601.2,2075.8 1630.4,1827.6 		"/>
	</g>
	<g id="SHOPPING_CART">
		<path class="st2" d="M408.6,1271.9h283.2c12.3,0,22.3,10,22.3,22.3v318.7c0,12.3-10,22.3-22.3,22.3H408.6
			c-12.3,0-22.3-10-22.3-22.3v-318.7C386.3,1281.9,396.3,1271.9,408.6,1271.9z"/>
		<path class="st4" d="M662,1306.3c-10-10-26.2-10-36.2,0c-4.8,4.8-7.5,11.3-7.5,18.1v74.5h51.2v-74.5
			C669.5,1317.6,666.8,1311.1,662,1306.3z M643.9,1325.1c-3,0-5.5-2.5-5.5-5.5c0-3,2.5-5.5,5.5-5.5c3,0,5.5,2.5,5.5,5.5
			C649.4,1322.6,647,1325.1,643.9,1325.1L643.9,1325.1z"/>
		<path class="st3" d="M658.6,1301.5c-10-10-26.2-10-36.2,0c-4.8,4.8-7.5,11.3-7.5,18.1v74.5h51.2v-74.5
			C666.1,1312.8,663.4,1306.3,658.6,1301.5z M640.5,1320.3c-3.1,0-5.5-2.5-5.5-5.5c0-3.1,2.5-5.5,5.5-5.5c3.1,0,5.5,2.5,5.5,5.5
			c0,0,0,0,0,0C646,1317.9,643.5,1320.3,640.5,1320.3z"/>
		<path class="st4" d="M640.5,1312.7v-44.4c0-7.1,5.7-12.8,12.8-12.8l0,0l0,0c7.1,0,12.8,5.7,12.8,12.8c0,0,0,0,0,0v1.3"/>
		<path class="st9" d="M650.9,1358.2c-0.5-1.1-1.1-2-2-2.8c-0.8-0.7-1.8-1.3-2.8-1.7c-1-0.4-2.4-0.8-4.2-1.3h-0.1v-8.8h0.1
			c1.7,0.5,3,1.8,3.4,3.5c0.2,1.3,1.4,2.3,2.7,2.2c0.7,0,1.4-0.3,1.9-0.8c0.5-0.5,0.8-1.1,0.8-1.8c0-0.7-0.2-1.5-0.5-2.1
			c-0.4-0.8-0.9-1.6-1.5-2.2c-0.8-0.9-1.7-1.6-2.8-2.1c-1.2-0.5-2.6-0.8-3.9-0.9h-0.1v-2.7c0-0.7-0.6-1.3-1.3-1.3
			c-0.7,0-1.3,0.6-1.3,1.3v2.7c-2.5,0.1-4.9,1-6.7,2.7c-2.6,2.9-3.1,7.2-1.1,10.6c0.8,1.2,1.8,2.1,3.1,2.8c1.5,0.7,3.1,1.3,4.7,1.8
			v9.9c-0.8-0.2-1.6-0.6-2.3-1.2c-0.5-0.5-1-1-1.3-1.7c-0.3-0.6-0.6-1.5-1-2.7c-0.1-0.5-0.5-1-0.9-1.2c-0.5-0.3-1-0.5-1.6-0.4
			c-0.8,0-1.5,0.3-2,0.8c-0.5,0.5-0.8,1.1-0.8,1.8c0,1,0.2,1.9,0.6,2.8c0.4,1,1.1,2,1.8,2.8c0.9,0.9,1.9,1.7,3.1,2.2
			c1.4,0.6,2.8,1,4.3,1.2v2c0,0.7,0.6,1.3,1.3,1.3c0.7,0,1.3-0.6,1.3-1.3c0,0,0,0,0,0v-2.1h0.1c1.8-0.1,3.6-0.7,5.2-1.6
			c1.4-0.8,2.6-2,3.3-3.5c0.8-1.4,1.1-2.9,1.1-4.5C651.6,1360.5,651.4,1359.3,650.9,1358.2z M636.3,1350c-1.3-1.5-1.2-3.7,0.1-5.2
			c0.8-0.7,1.8-1.1,2.8-1.4v8.1C638.1,1351.2,637.1,1350.7,636.3,1350z M645.2,1365.5c-0.9,0.9-2.1,1.5-3.3,1.7h-0.1v-9.3h0.1
			c1.2,0.3,2.4,0.9,3.3,1.7c0.8,0.7,1.2,1.8,1.1,2.9C646.4,1363.5,645.9,1364.6,645.2,1365.5z"/>
		<path class="st1" d="M355.8,1394.4h-44.1c0,0-42.4-37.6-60.9-59.7c-2.5-3-4.8-6.3-6.9-9.6c-6.1-9.9-3-22.8,6.9-28.9
			c3.3-2,7-3.1,10.8-3.1h0.5C306.8,1293,355.8,1374.2,355.8,1394.4z"/>
		<path class="st10" d="M380.1,1394.4h-31.1c0,0-29.8-26.4-42.9-42c-1.8-2.1-3.4-4.4-4.9-6.8c-4.3-6.9-2.1-16,4.8-20.3
			c2.3-1.4,5-2.2,7.7-2.2h0.3C345.7,1323.1,380.2,1380.2,380.1,1394.4z"/>
		<path class="st0" d="M287.8,1250.6c74.3-0.8,100.1,105.4,98.5,143.8h-30.6c0-20.2-49-101.3-93.8-101.3c-15.9,0-25.3,14.2-20.5,27
			C241.5,1320,210.7,1251.4,287.8,1250.6z"/>
		<path class="st0" d="M515,1379.3c5.2-12.5-1.8-27-14.9-30.9c-60.5-18.2-122.4,46-122.4,46h-15.1c0,0,31.8-93.6,125.3-79.7
			C508.5,1317.8,535.3,1337.5,515,1379.3z"/>
		<path class="st1" d="M515,1379.5c-2.8,6.6-6.2,12.7-8.7,14.8h-34.4c0,0,8.2-2.8,16.2-14.8c9.7-14.7,5.2-32.8-8-34
			c6.8,0.1,13.6,1,20.2,2.9C513.3,1352.4,520.4,1367,515,1379.5z"/>
		<path class="st1" d="M303.4,1391.2h224.8c27.3,0,49.4,22.1,49.4,49.4v263.6c0,27.3-22.1,49.4-49.4,49.4H303.4
			c-27.3,0-49.4-22.1-49.4-49.4v-263.6C254.1,1413.3,276.2,1391.2,303.4,1391.2z"/>
		<path class="st3" d="M252.3,1391.2h215.4c27.3,0,49.4,22.1,49.4,49.4v263.6c0,27.3-22.1,49.4-49.4,49.4H252.3
			c-27.3,0-49.4-22.1-49.4-49.4v-263.6C203,1413.3,225.1,1391.2,252.3,1391.2z"/>
		<g id="SHOPPING_CART-2">
			<path class="st4" d="M941.3,1324.8h-64.1c-32.1,0-60.5,20.9-70,51.6l-103,333.2c-13.1,42.3-52.2,71.1-96.4,71.1H251.2
				c-29.3,0-54.8,20-61.8,48.4l-13,69.1c-6.8,27.6,10.1,55.5,37.7,62.3c4,1,8.2,1.5,12.3,1.5h434.7"/>
			<path class="st4" d="M608.1,1780.7H277.4c-44.2,0-83.3-28.8-96.4-71.1l-66.1-266.5h671.7l-82,266.4
				C691.6,1751.9,652.4,1780.7,608.1,1780.7z"/>
			<line class="st4" x1="388.3" y1="1780.7" x2="283.9" y2="1443.1"/>
			<line class="st4" x1="476.4" y1="1780.7" x2="580.8" y2="1443.1"/>
			<line class="st4" x1="737.8" y1="1600.9" x2="155.5" y2="1600.9"/>
			<circle class="st11" cx="612.3" cy="2044.7" r="51"/>
			
				<ellipse transform="matrix(2.172378e-02 -0.9998 0.9998 2.172378e-02 -1783.858 2266.2598)" class="st11" cx="266.1" cy="2044.7" rx="51" ry="51"/>
			<circle class="st4" cx="601.7" cy="2035.7" r="51"/>
			<circle class="st4" cx="255.5" cy="2035.7" r="51"/>
		</g>
		<path class="st6" d="M602,1651.2h51.4c8,0,14.5,6.5,14.5,14.5v73.4c0,8-6.5,14.5-14.5,14.5H602c-8,0-14.5-6.5-14.5-14.5v-73.4
			C587.5,1657.6,594,1651.2,602,1651.2z"/>
	</g>
	<rect x="2145.6" y="1169.1" class="st1" width="164.4" height="36.2"/>
</g>
<g id="Layer_3">
	<g id="WOMAN">
		<g id="LEGS">
			<g id="RIGHT_LEG">
				<path id="LEG" class="st12" d="M2288.4,2041.2c5.6,14.7,10.3,36.5-9.4,36.5h-106.6c0,0-0.3-16.2,24.6-18.4
					c42.1-3.7,55.4-37.1,56-52.9c1.2-85.2-32-345.1-37.5-395.4c35.9-1.1,71.7-5.4,106.9-12.7c-18.1,61.2,20.8,111.4,23.9,172.9
					c3,61.3-45.9,197.3-60.1,243.9C2284.9,2023.4,2285.8,2034.5,2288.4,2041.2z"/>
				<path id="SHOE" class="st6" d="M2288.4,2041.2c0,0,16.3,36.5-7.4,36.5h-110.3c0,0-4.4-13.8,24.2-18.4c4-0.6,15.4-2.8,15.4-2.8
					s-3.5,10.2,21.7,9.1S2268.5,2043,2288.4,2041.2z"/>
				<path id="SHADOW" class="st1" d="M2319.2,1611.3c-33.2,9.3-67.3,15.4-101.7,18.1l0,0l-2.1-18.4c35.9-1.1,71.7-5.4,106.9-12.7
					L2319.2,1611.3z"/>
			</g>
			<g id="LEFT_LEG">
				<path id="LEG-2" class="st12" d="M2001.7,1576c35.5,13.8,72.4,23.5,110,29.1l-32.6,53.3c0,10.6,46.4,59.4,59.2,103
					c15.4,52.8,0.8,199.7,5.7,223.2c3.1,14.7-12.2,45.3-27.2,59.5c-9,8.5-20.4,5.3-20.4,5.3s24.2-48.3,12.7-85.9
					c-42.2-138.7-125-297-125-319c0-11.9,6.1-34.4,15.2-61.2L2001.7,1576z"/>
				<path id="SHOE-2" class="st6" d="M2142.3,1987.1c6.2-3.4,27.6,15.5,26.5,26l-51.6,63.8h-52.9c0,0-5.4-22,32.1-27.4
					S2118.1,2000.2,2142.3,1987.1z"/>
				<path id="SHADOW-2" class="st1" d="M2001.7,1576c35.5,13.8,72.4,23.5,110,29.1l-12.1,19.9c-33.7-7.1-67.8-21.9-100.4-41.6
					L2001.7,1576z"/>
			</g>
		</g>
		<g id="DRESS">
			<path id="DRESS-2" class="st6" d="M2363,1587.8c0,0-181.8,61.7-368.4-14.6c0,0,136.3-303.5,147.7-326.3s10.6-59.2,10.6-59.2
				s-5.7-58.4-22.7-77.9s-26.8-41.4-17.9-69s19.4-82,19.4-82l37.4-12.2l131.7-2.4c0,0,16.3,19,12.8,54.7c-3,31-41.9,118.3-8.2,188.8
				c15.4,25.2,69.7,70.5,76.2,149.8C2390.2,1439.7,2363,1587.8,2363,1587.8z"/>
		</g>
		<path class="st12" d="M2158.8,989c-0.7-27.8-22.4-44.3-44.4-16.8c-15.5,19.4-55.6,87.9-78.5,131.8
			c-22.6-34.2-72.6-93.5-100.4-119.6c0.9-11.5-4.6-43.4-8-45.8c-3.7-2.6-21.3-28.4-21.3-28.4s-6.5,3.5-0.5,14.1
			c7,12.4,5.4,16.3,5.4,16.3s-7.9,1.3-8.8,6.5s-7.1,1.5-9.9,9.4c-1.6,4.6-5.4,6.4-4.3,11c1,4.3,22.4,22.3,33.4,25.4
			c15.2,45.7,62.6,150.2,107.1,177.8c9.6,4.4,25.7-0.5,46.3-25C2160.6,1043.9,2159.4,1012.5,2158.8,989z"/>
		<g id="HEAD">
			<g id="NECK">
				<path id="NECK-2" class="st12" d="M2259.1,841.9c-0.8,21.1-3.9,53.8,46.3,110.4c26.9,30.3-55,39.1-98.9,16.2
					c-30.2-15.8-37.4-21.8-37.4-21.8s28.4-2.5,39.4-31c7.6-19.7,0.1-42-3.8-73.8L2259.1,841.9z"/>
				<path id="SHADOW-3" class="st1" d="M2246.2,846c0.3,2.7-5.3,51.6-34.9,60.6c2.9-15.6-4.2-42-5.8-60.6L2246.2,846z"/>
			</g>
			<g id="HAIR">
				<path class="st13" d="M2287.6,848.7c6.8,32.5,102.8,23.6,109.2,103.4"/>
				<path class="st1" d="M2294.6,1010.4c-35.6-16.3-85.1-64.7-36.2-139.1c-5.6-2.1-11.5-6-13.4-13.1c-3.8-14.8-54.5-32.2-56.8-63.3
					c-0.8-10.4,7.1-35.5,60.4-32.6c53.1,2.9,57.9,66.7,41,85.9c0,0-0.1,0.1-0.1,0.1c7.5,36.2,109.2,36.4,94.7,125.7
					C2380.1,998.9,2342,1032.1,2294.6,1010.4z"/>
			</g>
			<path id="HEAD-2" class="st12" d="M2242.8,857.9c-0.1,2.7-5.2,20.2-40.9,28.6c-6.5,1.5-23.6,2-24-2c-0.5-4.7-3.4-23.3-3.6-33.2
				c-0.1-3.1-10.1-9.9-8.3-12.1c5.6-6.8,15.6-14.7,15.9-17.5c1.7-21.1,9.6-32.9,17.4-32.5c4.4,0.2-1.2,39.4,43.6,52.2
				c0,0,12.7-6.6,14.6,0.4S2242.8,857.9,2242.8,857.9z"/>
		</g>
	</g>
	<g id="LEGS-2">
		<g id="SHOES">
			<path class="st1" d="M1194.4,2034.1c0,0-16.6,34.4-5.2,46.9h146.1c0,0-0.8-24.1-36-27.9c-31.6-3.4-50.8-19-50.8-19L1194.4,2034.1
				z"/>
			<path class="st1" d="M1187,2081h150c1.1,0,2,0.9,2,2v4.7c0,1.1-0.9,2-2,2h-150c-1.1,0-2-0.9-2-2v-4.7
				C1185,2081.9,1185.9,2081,1187,2081z"/>
			<path class="st4" d="M1258,2051.9l4.9-11.1c1.2-2.6,4.2-3.8,6.9-2.7c0.1,0,0.2,0.1,0.3,0.1l0,0c2.3,1.2,3.4,3.9,2.6,6.4l-0.7,1.9
				"/>
			<path class="st4" d="M1272.4,2057.1l4.8-11.3c1-2.3,3.7-3.3,6-2.3c0.1,0,0.1,0.1,0.2,0.1l0,0c2,1,3,3.4,2.2,5.6l-0.4,1.6"/>
			<path class="st4" d="M1287.1,2061.7l3.1-11.5c0.7-2.4,3.3-3.8,5.7-3.1c0.1,0,0.1,0,0.2,0.1l0,0c2.2,0.8,3.6,2.8,3.2,5.9"/>
		</g>
		<g id="SHOES-2">
			<path class="st1" d="M934.3,2034.1c0,0-16.6,34.4-5.2,46.9h137.9c0,0-0.8-24.1-36-27.9c-31.6-3.4-50.8-19-50.8-19L934.3,2034.1z"
				/>
			<path class="st1" d="M926.9,2081h141.8c1.1,0,2,0.9,2,2v4.7c0,1.1-0.9,2-2,2H926.9c-1.1,0-2-0.9-2-2v-4.7
				C924.9,2081.9,925.8,2081,926.9,2081z"/>
			<path class="st4" d="M989.7,2051.9l4.9-11.1c1.2-2.6,4.3-3.8,6.9-2.7c0.1,0,0.2,0.1,0.2,0.1l0,0c2.3,1.2,3.4,3.9,2.6,6.4
				l-0.7,1.9"/>
			<path class="st4" d="M1004.2,2057.1l4.8-11.3c1-2.3,3.7-3.3,6-2.3c0.1,0,0.1,0.1,0.2,0.1l0,0c2,1,3,3.4,2.2,5.6l-0.4,1.6"/>
			<path class="st4" d="M1018.8,2061.7l3.1-11.5c0.7-2.4,3.3-3.8,5.7-3.1c0.1,0,0.1,0,0.2,0.1l0,0c2.2,0.8,3.6,2.8,3.2,5.9"/>
		</g>
		<path id="PANTS" class="st2" d="M1235.2,1290.3c11,41,14.8,178.8,18.3,381.9c2.6,147.3,15.4,357.1,15.4,357.1s-33.7,14.6-93.2,3.3
			c0,0-57-187.8-36.7-324.6c3.2-21.9-27.6-151.8-27.6-151.8S988.8,1999,988.8,2035.2c0,0-47.8,9.2-76.2,0c0,0-42.9-201.7,25.2-319.2
			c36.7-63.3,28.3-294.7,29.3-313.3c3.4-65.8,35.6-115.3,35.6-115.3L1235.2,1290.3z"/>
		<path id="SHADOW-4" class="st4" d="M1111.5,1557.8c-4.1-17.9-25.2-147-30.9-151.9s-15.4-11.4-21.9-17.9"/>
		<path id="SHADOW-5" class="st1" d="M1239,1310.3c-85.1,45.4-214.3,23.2-245.2-7.2c2.6-5.4,5.5-10.6,8.7-15.7l232.6,2.9
			C1236.8,1296.9,1238.1,1303.5,1239,1310.3z"/>
	</g>
	<g id="LEFT_HAND">
		<path id="HAND" class="st12" d="M1007.7,1212.5c-0.7,4.4-1.6,8.7-2.8,13c-33.6-0.5-63.2-5.4-77.5-19.1
			c-41.5-39.8-10.3-137.1-8.3-143c14.5,9.7,35.4,20.4,65.1,30.4C997.5,1147.8,1009.8,1198.1,1007.7,1212.5z"/>
		<path id="SHADOW-6" class="st1" d="M919,1063.3c14.5,9.7,35.4,20.4,65.1,30.4c3.1,12.5,6.1,24.7,8.9,36.4
			c-40-17.9-60.3-39.2-77.8-53.8L919,1063.3z"/>
	</g>
	<g id="RIGHT_HAND">
		<path class="st12" d="M1535,884.7c-2-2.6-5.4-3.1-6.1-4.2s-0.4-3.8-2.4-5.5s-4.9-1.5-6.2-2.5s-0.4-4-2.8-6.5s-5.8-2.2-6.5-3
			s12.5-23.9,7.5-26.9s-30.9,29.8-36,37.5c-10.5,15.8-10.6,35.7-12,42.8c-0.1,0.1-0.2,0.2-0.3,0.3c-4.1,4.9-99.8,99.8-116.9,131.5
			l-15.2-23l-87.1,61.7c0,0,63.3,92,119.3,72.5c53-18.4,113.3-197.5,124.4-222.2c18.3-3.6,33.6-23.9,38.6-33.2
			C1539.7,892,1537,887.3,1535,884.7z"/>
		<path id="SHADOW-7" class="st1" d="M1342.3,1031.5c-14.6,33.6-39.5,61.7-71.2,80.2c-7.2-7.9-13.9-16.3-20.1-25l87.1-61.6
			L1342.3,1031.5z"/>
	</g>
	<path id="T-SHIRT" class="st3" d="M984.1,1093.8c13.4,54.1,25.7,104.3,23.6,118.7c-4.4,30.2-28.6,67.4-17.3,76
		c31.9,24.3,134.7,49.6,253.1,8c0,0-15.2-28.6,1.2-142.6c2.4-16.9,5.6-40.3,8.8-66.1h0.1c53.2-18.7,94.3-74.2,94.3-74.2
		s-25.8-68.6-54.4-91.7c-18-14.6-111.2-40.8-118.9-45.2l-110.7-1.5c-7.4,0.6-86.4,25.7-118.9,49.6c-29.6,21.8-57.3,108.7-57.3,108.7
		S903.1,1066.6,984.1,1093.8z"/>
	<g id="NECK-3">
		<path class="st12" d="M1060.7,875.8c8.8-4.1,39.7-35.8,34.8-74.1l68.6,7.8c0,0,6.8,47.6,18.2,71.6c-24.1,6.1-48.8,9-73.6,8.7
			C1067.8,889.3,1060.7,875.8,1060.7,875.8z"/>
		<path class="st1" d="M1173.7,857.2c-6.9-0.8-21.6-3.8-29.4-11c-12.7-11.7-30.5-37.6-30.7-42.3l50.5,5.6
			C1164.1,809.5,1168.3,833.4,1173.7,857.2z"/>
	</g>
	<path id="FACE" class="st12" d="M1130.2,804.3c0,0,10.8,19.2,21.8,22s36.4,0.6,44.1-4c4.8-2.8,3.3-26.4,2.4-35
		c-0.2-1.7,12.8-7.2,12-12.2c-0.9-5.3-15.7-18-16.9-25.1c-3.8-20.8-9-40.5-10.7-41.2c-2.8-1.2-46.2,1.5-51.3,13.4s1.3,48.5,1.3,48.5
		s-14-8.2-18.2,2.8C1108.6,789.5,1130.2,804.3,1130.2,804.3z"/>
	<g id="HAIR-2">
		<path class="st14" d="M1211.4,695.6c15.1,12.2-7.6,62.5-53.6,26.8"/>
		<path class="st14" d="M1047,734.4c8.9-15.8,26.3-2.6,26.3-2.6"/>
		<path class="st1" d="M1197.4,784.5c0,0-17,13.8-26.6,15s-17.6-27.7-20.5-40.4c-6.6-29.6-5.9-41.4,21.6-31.3
			c36.3,13.3,43.5-31.5,29.5-39.1c-8.9-4.8-13.2-3.3-25.8,3c-14,7.1-43.7-16.4-78.9-6c-33.1,9.7-28.1,43.1-28.1,43.1
			s-13.1-2.4-15.4,16.7c-1.9,15.1,19.1,41.8,35.2,71.8c4.5,8.4,26.5,3.4,31.9-5.1c0,0,7.2-12.3-1.8-27.3
			c-7.4-12.3,5.4-22.2,18.1-11.5c-1.9,8.6-5.9,31.8,1.8,43.8c11.5,17.9,70.6,20.6,72.1,10.6S1197.4,784.5,1197.4,784.5z"/>
	</g>
	<circle class="st15" cx="2243.8" cy="841.2" r="14.6"/>
	<path class="st13" d="M2238.2,850.2c0,0-1.7-5.8-0.1-11c1.1-3.9,4.2-6.8,8.2-7.6"/>
	<line class="st13" x1="2246.3" y1="843" x2="2238.1" y2="839.2"/>
	<circle class="st16" cx="2254.7" cy="857.6" r="6.8"/>
	<ellipse class="st1" cx="2189.7" cy="823.1" rx="3.3" ry="4.9"/>
	<path class="st13" d="M2177.9,857.6c0,0,7.5,0.7,11.8-4.4"/>
	<path class="st12" d="M1144.7,803c-13.8,3.8-28.1-4.3-31.9-18.1c-3.8-13.8,4.3-28.1,18.1-31.9"/>
	<path class="st12" d="M1122,775c0,0,10.3-6.7,18.1,5.2"/>
	<line class="st4" x1="1133.6" y1="774.1" x2="1128.3" y2="784.5"/>
	
		<ellipse transform="matrix(0.9815 -0.1917 0.1917 0.9815 -123.2364 240.342)" class="st1" cx="1180.7" cy="757.2" rx="4.1" ry="6.2"/>
	<path class="st1" d="M1166.5,742.5l9.5-5.1c1.8-1,4-0.3,4.9,1.5l0,0c1,1.8,0.3,4-1.5,4.9l-9.5,5.1c-1.8,1-4,0.3-4.9-1.5l0,0
		C1164.1,745.7,1164.8,743.5,1166.5,742.5z"/>
	<line class="st4" x1="956.9" y1="990.9" x2="984.1" y2="1093.8"/>
	<path class="st4" d="M1291.6,930.6c0,0-58.1,3.5-66.9,66.5"/>
</g>
</svg>
