<?xml version="1.0" encoding="iso-8859-1"?>
<!-- Generator: Adobe Illustrator 18.0.0, SVG Export Plug-In . SVG Version: 6.00 Build 0)  -->
<!DOCTYPE svg PUBLIC "-//W3C//DTD SVG 1.1//EN" "http://www.w3.org/Graphics/SVG/1.1/DTD/svg11.dtd">
<svg version="1.1" id="Capa_1" xmlns="http://www.w3.org/2000/svg" xmlns:xlink="http://www.w3.org/1999/xlink" x="0px" y="0px"
	 viewBox="0 0 83.266 83.266" style="enable-background:new 0 0 83.266 83.266;" xml:space="preserve">
<g>
	<rect x="0" y="11.434" style="fill:#231F20;" width="6.09" height="60.398"/>
	<rect x="11.8" y="11.434" style="fill:#231F20;" width="4.54" height="47.709"/>
	<rect x="22.825" y="11.434" style="fill:#231F20;" width="4.54" height="47.709"/>
	<rect x="33.851" y="11.434" style="fill:#231F20;" width="4.539" height="47.709"/>
	<rect x="44.875" y="11.434" style="fill:#231F20;" width="4.54" height="47.709"/>
	<rect x="55.9" y="11.434" style="fill:#231F20;" width="4.54" height="47.709"/>
	<rect x="66.926" y="11.434" style="fill:#231F20;" width="4.539" height="47.709"/>
	<rect x="77.175" y="11.434" style="fill:#231F20;" width="6.091" height="60.398"/>
	<polygon style="fill:#231F20;" points="10.705,64.403 10.705,65.379 12.203,65.002 12.203,71.327 13.696,71.327 13.696,63.519 
		12.215,63.519 	"/>
	<path style="fill:#231F20;" d="M25.542,65.829c0-1.312-0.7-2.416-2.312-2.416c-1.378,0-2.271,0.104-3.242,0.271V64.8h2.768
		c0.916,0,1.287,0.329,1.287,1.037c0,1.236-2.978,3.507-3.976,4.179v1.312h5.474v-1.376h-2.945
		C23.307,69.387,25.542,67.579,25.542,65.829z"/>
	<path style="fill:#231F20;" d="M34.958,63.498c-1.248-0.021-2.512-0.031-3.45,0.299v1.077h2.848c0.555,0,1.051,0.125,1.051,0.736
		v0.384c0,0.563-0.315,0.73-1.051,0.763l-2.123,0.106v1.205l2.123,0.075c0.635,0.027,1.029,0.163,1.029,0.808v0.336
		c0,0.679-0.382,0.729-1.094,0.729h-2.709l-0.011,1.088c0.938,0.33,2.096,0.298,3.311,0.298c1.302,0,2.005-0.676,2.005-1.909v-0.453
		c0-0.81-0.243-1.352-0.81-1.595c0.55-0.205,0.81-0.73,0.81-1.509v-0.56C36.888,64.236,36.131,63.519,34.958,63.498z"/>
	<polygon style="fill:#231F20;" points="48.481,65.61 47.324,65.61 46.988,66.427 46.988,68.207 45.056,68.207 47.388,63.519 
		45.746,63.519 42.967,68.938 43.33,69.626 46.988,69.626 46.988,71.305 48.481,71.305 48.481,69.626 49.266,69.364 49.266,68.207 
		48.481,68.207 	"/>
	<path style="fill:#231F20;" d="M58.867,66.394c-0.225-0.006-0.754-0.046-1.165,0c-0.23,0.024-0.518,0.086-0.737,0.261l0.081-1.76
		h3.307v-1.376h-4.741l-0.234,4.815h1.407c0-0.44,0.277-0.624,0.652-0.624h0.997c0.65,0,0.714,0.41,0.714,0.763v0.71
		c0,0.328-0.084,0.757-0.778,0.757h-3.008v1.174c1.429,0.245,1.979,0.256,3.301,0.256c0.873,0,1.979-0.47,1.979-1.931v-1.099
		C60.641,67.253,60.114,66.453,58.867,66.394z"/>
	<path style="fill:#231F20;" d="M70.607,66.586c-0.848,0-1.534,0.064-2.159,0.225c0.01-0.832,0.096-1.979,1.066-1.979h2.672v-1.133
		c-1.002-0.18-2.326-0.308-3.397-0.214c-0.92,0.082-1.834,0.92-1.834,3.746c0,3.359,0.831,4.102,2.069,4.106h1.524
		c1.132,0,1.894-0.465,1.894-1.766V68.41C72.442,67.396,72.117,66.586,70.607,66.586z M70.954,69.303
		c0,0.558-0.236,0.658-0.675,0.658h-0.814c-0.909,0-1.017-0.985-1.017-2.059h1.86c0.438,0,0.646,0.138,0.646,0.683V69.303z"/>
</g>
<g>
</g>
<g>
</g>
<g>
</g>
<g>
</g>
<g>
</g>
<g>
</g>
<g>
</g>
<g>
</g>
<g>
</g>
<g>
</g>
<g>
</g>
<g>
</g>
<g>
</g>
<g>
</g>
<g>
</g>
</svg>
